<?xml version="1.0" encoding="iso-8859-1"?>
<!-- Generator: Adobe Illustrator 19.0.0, SVG Export Plug-In . SVG Version: 6.00 Build 0)  -->
<svg version="1.1" id="Layer_1" xmlns="http://www.w3.org/2000/svg" xmlns:xlink="http://www.w3.org/1999/xlink" x="0px" y="0px"
	 viewBox="0 0 512 512" style="enable-background:new 0 0 512 512;" xml:space="preserve">
<path style="fill:#FF5B62;" d="M256.001,0C397.385,0,512,114.615,512,255.999C512,397.385,397.385,512,256.001,512
	C114.615,512,0,397.385,0,255.999C0,114.615,114.615,0,256.001,0z"/>
<path style="fill:#FAD24D;" d="M255.865,100.588l-34.062,183.801l-77.696-172.479l9.251,188.133l-83.3-141.052l49.757,236.426
	c17.094,0,94.58-13.547,136.099-13.287c71.361,0.44,134.859,6.725,136.059,13.287l49.799-236.426l-83.3,141.053l9.251-188.133
	l-77.761,172.663L255.865,100.588L255.865,100.588z"/>
<g>
	<path style="fill:#EDB937;" d="M378.285,386.145c6.615,1.349,13.68,4.452,14.099,7.313l42.488-201.719L378.285,386.145z"/>
	<ellipse style="fill:#EDB937;" cx="255.91" cy="395.258" rx="136.084" ry="18.361"/>
</g>
<circle style="fill:#FAD24D;" cx="70.053" cy="158.989" r="12.205"/>
<path style="fill:#FFD95E;" d="M78.072,149.784c0.93,1.724,1.459,3.696,1.459,5.792c0,6.74-5.464,12.205-12.205,12.205
	c-3.068,0-5.872-1.132-8.015-3.001c-0.93-1.724-1.458-3.696-1.458-5.79c0-6.741,5.463-12.205,12.205-12.205
	C73.125,146.784,75.928,147.916,78.072,149.784L78.072,149.784z"/>
<circle style="fill:#FAD24D;" cx="144.109" cy="111.911" r="13.13"/>
<path style="fill:#FFD95E;" d="M152.73,102.007c1.001,1.854,1.569,3.975,1.569,6.23c0,7.253-5.879,13.131-13.13,13.131
	c-3.301,0-6.316-1.218-8.622-3.229c-1.001-1.854-1.57-3.975-1.57-6.23c0-7.253,5.879-13.131,13.131-13.131
	C147.408,98.778,150.423,99.996,152.73,102.007z"/>
<circle style="fill:#FAD24D;" cx="255.87" cy="100.584" r="16.344"/>
<path style="fill:#FFD95E;" d="M266.597,88.262c1.246,2.308,1.953,4.947,1.953,7.754c0,9.027-7.317,16.345-16.343,16.345
	c-4.109,0-7.863-1.516-10.734-4.018c-1.245-2.308-1.953-4.948-1.953-7.754c0-9.028,7.318-16.345,16.345-16.345
	C259.973,84.243,263.726,85.759,266.597,88.262L266.597,88.262z"/>
<circle style="fill:#FAD24D;" cx="367.722" cy="111.911" r="13.13"/>
<path style="fill:#FFD95E;" d="M376.344,102.007c1.001,1.854,1.57,3.975,1.57,6.23c0,7.253-5.879,13.131-13.131,13.131
	c-3.301,0-6.316-1.218-8.622-3.229c-1.001-1.854-1.569-3.975-1.569-6.23c0-7.253,5.879-13.131,13.13-13.131
	C371.022,98.778,374.037,99.996,376.344,102.007z"/>
<circle style="fill:#FAD24D;" cx="441.488" cy="160.317" r="12.205"/>
<path style="fill:#FFD95E;" d="M449.506,151.112c0.93,1.724,1.459,3.694,1.459,5.79c0,6.741-5.464,12.205-12.205,12.205
	c-3.068,0-5.872-1.132-8.015-3.001c-0.93-1.723-1.458-3.694-1.458-5.79c0-6.74,5.463-12.205,12.205-12.205
	C444.56,148.111,447.362,149.242,449.506,151.112L449.506,151.112z"/>
<g>
</g>
<g>
</g>
<g>
</g>
<g>
</g>
<g>
</g>
<g>
</g>
<g>
</g>
<g>
</g>
<g>
</g>
<g>
</g>
<g>
</g>
<g>
</g>
<g>
</g>
<g>
</g>
<g>
</g>
</svg>
